<svg width="171" height="77" viewBox="0 0 171 77" fill="none" xmlns="http://www.w3.org/2000/svg">
<g clip-path="url(#clip0_629_5)">
<path d="M64.1584 28.1066H61.2852V47.8777H64.1584V28.1066Z" fill="white"/>
<path d="M75.6276 35.8503C76.1164 36.1708 76.4978 36.5909 76.7668 37.1121C77.0383 37.6345 77.2202 38.1985 77.3174 38.8079C77.4147 39.4174 77.4627 40.0091 77.4627 40.5858V47.8764H80.3763V39.6369C80.3763 39.1801 80.3346 38.6502 80.2525 38.0445C80.1704 37.4401 80.0138 36.8231 79.7852 36.191C79.5554 35.5601 79.2232 34.9759 78.7888 34.4396C78.353 33.9046 77.7872 33.4731 77.0914 33.1425C76.3942 32.8144 75.5354 32.6491 74.5086 32.6491C73.1711 32.6491 72.0307 32.9381 71.0873 33.5147C70.495 33.8768 70.0213 34.3588 69.602 34.8989V33.0478H67.0332V47.8764H69.9468V40.1606C69.9468 39.2824 70.0453 38.5354 70.2424 37.9221C70.4381 37.3102 70.7097 36.8143 71.0519 36.4395C71.3967 36.0648 71.7971 35.791 72.2542 35.6232C72.7127 35.4541 73.1989 35.3695 73.713 35.3695C74.4998 35.3695 75.1388 35.5298 75.6301 35.8503" fill="white"/>
<path d="M91.1026 45.2001C90.5936 45.5673 89.8902 45.749 88.9922 45.749C88.0046 45.749 87.1773 45.5282 86.5118 45.0828C85.8474 44.6386 85.4244 44.033 85.24 43.2646L82.2998 43.7175C82.5562 45.1636 83.2521 46.284 84.3887 47.0815C85.5254 47.8777 86.9955 48.2764 88.8002 48.2764C90.605 48.2764 92.1508 47.86 93.218 47.026C94.2852 46.1944 94.8195 45.0449 94.8195 43.58C94.8195 42.8217 94.6616 42.1731 94.3446 41.6381C94.0289 41.1031 93.5047 40.6413 92.771 40.2501C92.0384 39.8628 91.0483 39.5069 89.803 39.1877C88.6398 38.895 87.7596 38.6426 87.1647 38.4319C86.5699 38.2224 86.1682 38.0029 85.9611 37.7732C85.7565 37.5448 85.6517 37.2647 85.6517 36.9354C85.6517 36.3689 85.922 35.9222 86.465 35.5979C87.0043 35.2736 87.709 35.1285 88.5792 35.1651C89.4873 35.2017 90.2236 35.425 90.7919 35.8376C91.3602 36.249 91.6949 36.8143 91.796 37.5272L94.7348 36.9922C94.625 36.1127 94.2953 35.3468 93.7472 34.6932C93.1966 34.0371 92.478 33.5323 91.5888 33.1753C90.701 32.8182 89.6881 32.6403 88.5514 32.6403C87.4148 32.6403 86.3741 32.8232 85.5077 33.1891C84.6413 33.5563 83.9707 34.0737 83.4946 34.7411C83.0172 35.4099 82.7797 36.1935 82.7797 37.0906C82.7797 37.8123 82.9376 38.4281 83.2533 38.9366C83.5703 39.4451 84.102 39.888 84.8485 40.2678C85.5949 40.6489 86.604 41.0022 87.8795 41.3327C89.0427 41.6432 89.9078 41.9056 90.4749 42.1163C91.0432 42.327 91.4183 42.5491 91.5964 42.7825C91.7732 43.016 91.8642 43.3201 91.8642 43.6961C91.8642 44.3358 91.6103 44.8393 91.1013 45.2064" fill="white"/>
<path d="M101.527 28.9306H98.6408V33.0504H95.7954V35.3556H98.6408V42.0431C98.6408 42.8469 98.6522 43.5687 98.6749 44.2046C98.6977 44.8418 98.8694 45.4664 99.1902 46.0796C99.5476 46.766 100.078 47.2695 100.785 47.59C101.49 47.9117 102.292 48.0859 103.19 48.1124C104.088 48.1401 105.004 48.0606 105.939 47.8789V45.4475C104.967 45.5837 104.122 45.6153 103.405 45.5371C102.685 45.4588 102.161 45.1371 101.831 44.5693C101.657 44.2664 101.562 43.8955 101.549 43.4564C101.536 43.0173 101.529 42.4999 101.529 41.9044V35.3556H105.941V33.0504H101.529V28.9306H101.527Z" fill="white"/>
<path d="M110.751 28.1268H110.665C109.861 28.1268 109.208 28.7788 109.208 29.5829C109.208 30.3871 109.861 31.039 110.665 31.039H110.751C111.556 31.039 112.209 30.3871 112.209 29.5829C112.209 28.7788 111.556 28.1268 110.751 28.1268Z" fill="white"/>
<path d="M112.203 33.0491H109.332V47.8777H112.203V33.0491Z" fill="white"/>
<path d="M120.408 28.9306H117.522V33.0504H114.677V35.3556H117.522V42.0431C117.522 42.8469 117.534 43.5687 117.556 44.2046C117.579 44.8418 117.751 45.4664 118.073 46.0796C118.429 46.766 118.959 47.2695 119.667 47.59C120.371 47.9117 121.173 48.0859 122.071 48.1124C122.969 48.1401 123.885 48.0606 124.821 47.8789V45.4475C123.848 45.5837 123.003 45.6153 122.286 45.5371C121.566 45.4588 121.042 45.1371 120.712 44.5693C120.538 44.2664 120.443 43.8955 120.431 43.4564C120.417 43.0173 120.411 42.4999 120.411 41.9044V35.3556H124.822V33.0504H120.411V28.9306H120.408Z" fill="white"/>
<path d="M138.3 40.7649C138.3 41.6444 138.2 42.3901 138.003 43.0034C137.807 43.6153 137.536 44.1112 137.194 44.486C136.849 44.8607 136.448 45.1345 135.991 45.3023C135.533 45.4714 135.047 45.556 134.533 45.556C133.746 45.556 133.107 45.397 132.615 45.0752C132.127 44.7547 131.745 44.3345 131.476 43.8134C131.205 43.291 131.023 42.727 130.926 42.1176C130.83 41.5094 130.78 40.9163 130.78 40.3397V33.0491H127.867V41.2886C127.867 41.7453 127.908 42.2778 127.99 42.881C128.073 43.4854 128.229 44.1024 128.458 44.7345C128.686 45.3667 129.02 45.9484 129.454 46.4834C129.89 47.0184 130.456 47.4512 131.152 47.7805C131.846 48.1098 132.708 48.2764 133.734 48.2764C135.072 48.2764 136.212 47.9887 137.156 47.4108C137.748 47.0487 138.222 46.5667 138.641 46.0266V47.8777H141.197V33.0491H138.297V40.7649H138.3Z" fill="white"/>
<path d="M149.335 28.9306H146.449V33.0504H143.604V35.3556H146.449V42.0431C146.449 42.8469 146.46 43.5687 146.483 44.2046C146.506 44.8418 146.678 45.4664 146.998 46.0796C147.356 46.766 147.886 47.2695 148.593 47.59C149.298 47.9117 150.1 48.0859 150.998 48.1124C151.896 48.1401 152.812 48.0606 153.748 47.8789V45.4475C152.775 45.5837 151.93 45.6153 151.213 45.5371C150.493 45.4588 149.969 45.1371 149.639 44.5693C149.465 44.2664 149.37 43.8955 149.358 43.4564C149.344 43.0173 149.337 42.4999 149.337 41.9044V35.3556H153.749V33.0504H149.337V28.9306H149.335Z" fill="white"/>
<path d="M166.217 44.1503C165.517 45.1067 164.456 45.585 163.035 45.585C161.614 45.585 160.603 45.1181 159.889 44.1856C159.174 43.2519 158.817 42.0065 158.817 40.4507C158.817 39.4438 158.968 38.558 159.27 37.7947C159.573 37.0313 160.034 36.4294 160.657 35.9953C161.281 35.5613 162.073 35.3443 163.034 35.3443C164.437 35.3443 165.492 35.8073 166.201 36.7373C166.912 37.6672 167.267 38.905 167.267 40.452C167.267 41.999 166.918 43.1951 166.217 44.1516M169.426 36.4016C168.83 35.2307 167.987 34.3096 166.897 33.6421C165.806 32.9734 164.52 32.639 163.035 32.639C161.55 32.639 160.306 32.967 159.216 33.6219C158.125 34.2768 157.279 35.1916 156.674 36.3663C156.069 37.5436 155.766 38.905 155.766 40.452C155.766 41.999 156.062 43.3465 156.652 44.5238C157.245 45.6998 158.084 46.6222 159.174 47.2897C160.266 47.9584 161.551 48.2915 163.035 48.2915C164.519 48.2915 165.793 47.9597 166.883 47.2972C167.975 46.6335 168.82 45.7137 169.419 44.5377C170.019 43.3604 170.319 41.999 170.319 40.452C170.319 38.905 170.021 37.5738 169.426 36.4016Z" fill="white"/>
<path d="M61.4129 68.9647C61.4129 69.5401 61.4015 70.0473 61.3813 70.4864C61.3586 70.9255 61.2878 71.2965 61.1603 71.6006C60.962 72.0826 60.6336 72.4334 60.1802 72.6517C59.7243 72.8725 59.2974 72.9823 58.8996 72.9823C58.3224 72.9823 57.7781 72.7715 57.2641 72.3463C56.7526 71.9223 56.4494 71.4239 56.3547 70.8473L52.144 71.853C52.6366 73.4226 53.4664 74.6667 54.6333 75.5879C55.8016 76.509 57.2855 76.9683 59.0865 76.9683C60.3318 76.9683 61.4684 76.7184 62.4952 76.2162C63.522 75.7128 64.353 74.9078 64.9933 73.7999C65.2863 73.2964 65.4821 72.8132 65.5819 72.3476C65.6816 71.8807 65.7347 71.3823 65.7397 70.8486C65.7435 70.3161 65.7448 69.6877 65.7448 68.9672V53.9014H61.4116V68.9672L61.4129 68.9647Z" fill="white"/>
<path d="M80.4885 72.5179C80.2094 72.639 79.9038 72.7299 79.5691 72.7943C79.3481 72.8346 79.1296 72.8674 78.9086 72.8876C78.6901 72.9078 78.4602 72.9192 78.219 72.9192C77.6431 72.9192 77.0255 72.8258 76.365 72.6365C75.7045 72.4485 75.2031 72.1343 74.857 71.6952C74.6587 71.4227 74.4895 71.1224 74.3481 70.793C74.2066 70.4625 74.1372 70.0726 74.1372 69.6246C74.1372 69.2474 74.1826 68.9079 74.2786 68.6051C74.3721 68.2998 74.5034 68.036 74.6701 67.8039C74.7952 67.6474 74.9442 67.501 75.1172 67.3648C75.2902 67.2285 75.4873 67.1124 75.7057 67.019L81.2349 72.1041C81.0165 72.2605 80.7664 72.3993 80.4898 72.5192M86.5116 70.1647C86.5318 69.6373 86.5431 69.1325 86.5431 68.6505V64.3516H82.8364V68.2114L77.6532 63.409C77.3602 63.139 77.0811 62.8766 76.8146 62.6242C76.5456 62.3744 76.3233 62.1536 76.1465 61.9668C75.8939 61.6943 75.6742 61.4179 75.486 61.134C75.2978 60.8514 75.2031 60.4703 75.2031 59.9896C75.2031 59.4571 75.3155 59.0117 75.5416 58.6559C75.7664 58.3013 76.1149 58.0124 76.586 57.7915C77.0344 57.5833 77.5598 57.4786 78.1546 57.4786C78.5335 57.4786 78.92 57.5228 79.3178 57.6111C79.7169 57.6994 80.0604 57.8963 80.3547 58.2016C80.6679 58.5145 80.8876 58.8906 81.0152 59.3297L85.2549 58.483C85.1299 57.9594 84.9329 57.4433 84.6664 56.9297C84.3999 56.4174 84.0614 55.9518 83.6535 55.5329C82.993 54.8112 82.1935 54.2901 81.2514 53.9708C80.3092 53.6529 79.3178 53.4926 78.2822 53.4926C77.7694 53.4926 77.239 53.5242 76.6972 53.586C76.1503 53.6491 75.6123 53.774 75.078 53.9633C73.7898 54.4137 72.7719 55.1758 72.023 56.2547C71.274 57.331 70.8989 58.5549 70.8989 59.9265C70.8989 60.753 71.0429 61.481 71.3233 62.1157C71.6062 62.7479 72.0293 63.3889 72.5964 64.0374C72.3981 64.1939 72.1985 64.3592 71.999 64.532C71.8007 64.7049 71.6125 64.8954 71.4344 65.1049C70.8901 65.7421 70.4872 66.4727 70.2245 67.2941C69.9631 68.1143 69.833 68.9761 69.833 69.8745C69.8646 70.7842 70.0187 71.6334 70.2965 72.4182C70.5744 73.2006 71.0151 73.9349 71.6226 74.6138C72.3766 75.4301 73.3188 76.027 74.4504 76.4042C75.582 76.779 76.7755 76.9683 78.0321 76.9683C78.4097 76.9683 78.781 76.9569 79.1486 76.9367C79.5148 76.914 79.9177 76.8724 80.3572 76.8105C81.0493 76.697 81.7313 76.4875 82.4082 76.1834C83.0839 75.8806 83.7179 75.4718 84.3153 74.9595L86.3878 76.9367L89.1196 74.0182L86.3562 71.4744C86.4396 71.1312 86.4926 70.6934 86.5128 70.1647" fill="white"/>
<path d="M91.6313 76.4964H95.9027V67.332H103.57V63.0646H95.9027V58.1688H105.453V53.8989H91.6313V76.4964Z" fill="white"/>
<path d="M23.2312 25.8582H0.681152V48.3875H23.2312V25.8582Z" fill="white"/>
<path d="M26.2686 0.03302L48.8186 22.5623V0.03302H26.2686Z" fill="white"/>
<path d="M48.8186 48.3875V25.8582H26.2686L48.8186 48.3875Z" fill="white"/>
<path d="M0.681152 74.3564C13.1351 74.3564 23.2312 64.0564 23.2312 51.3514H0.681152V74.3564Z" fill="white"/>
</g>
<defs>
<clipPath id="clip0_629_5">
<rect width="171" height="77" fill="white"/>
</clipPath>
</defs>
</svg>
